<mxfile host="app.diagrams.net" modified="2023-11-05T13:27:37.490Z" agent="Mozilla/5.0 (Windows NT 10.0; Win64; x64) AppleWebKit/537.36 (KHTML, like Gecko) Chrome/116.0.5845.931 YaBrowser/23.9.3.931 Yowser/2.5 Safari/537.36" version="22.0.8" etag="fWqDYgpCzrlcuCljS8GW" type="github">
  <diagram name="Страница — 1" id="TE5R_pztaHRHn0Inv4UC">
    <mxGraphModel>
      <root>
        <mxCell id="0" />
        <mxCell id="1" parent="0" />
      </root>
    </mxGraphModel>
  </diagram>
</mxfile>
